# AST/ASF file generated using VICON BodyLanguage
# -----------------------------------------------
:version 1.10
:name VICON
:units
  mass 1.0
  length 0.45
  angle deg
:documentation
   .ast/.asf automatically generated from VICON data using
   VICON BodyBuilder and BodyLanguage model FoxedUp or BRILLIANT.MOD
:root
   order TX TY TZ RX RY RZ
   axis XYZ
   position 0 0 0  
   orientation 0 0 0 
:bonedata
  begin
     id 1 
     name lhipjoint
     direction 0.692814 -0.645514 0.321437 
     length 2.38754 
     axis 0 0 0  XYZ
  end
  begin
     id 2 
     name lfemur
     direction 0.34202 -0.939693 0  
     length 6.41921  
     axis 0 0 20  XYZ
    dof rx ry rz
    limits (-160.0 20.0)
           (-70.0 70.0)
           (-60.0 70.0)
  end
  begin
     id 3 
     name ltibia
     direction 0.34202 -0.939693 0   
     length 6.98247   
     axis 0 0 20   XYZ
    dof rx
    limits (-10.0 170.0)
  end
  begin
     id 4 
     name lfoot
     direction 0.0947186 -0.260237 0.960888   
     length 1.83034   
     axis -90 7.62852e-016 20   XYZ
    dof rx rz
    limits (-45.0 90.0)
           (-70.0 20.0)
  end
  begin
     id 5 
     name ltoes
     direction 1.53538e-011 -4.21952e-011 1   
     length 0.920499   
     axis -90 7.62852e-016 20   XYZ
    dof rx
    limits (-90.0 20.0)
  end
  begin
     id 6 
     name rhipjoint
     direction -0.631686 -0.693949 0.345555   
     length 2.2209  
     axis 0 0 0  XYZ 
  end
  begin
     id 7 
     name rfemur
     direction -0.34202 -0.939693 0   
     length 6.49542   
     axis 0 0 -20   XYZ
    dof rx ry rz
    limits (-160.0 20.0)
           (-70.0 70.0)
           (-70.0 60.0)
  end
  begin
     id 8 
     name rtibia
     direction -0.34202 -0.939693 0   
     length 7.21712   
     axis 0 0 -20   XYZ
    dof rx
    limits (-10.0 170.0)
 end
 begin
     id 9 
     name rfoot
     direction -0.0825378 -0.226771 0.970444   
     length 1.89724  
     axis -90 -7.62852e-016 -20   XYZ
    dof rx rz
    limits (-45.0 90.0)
           (-20.0 70.0)
  end
  begin
     id 10 
     name rtoes
     direction -1.53515e-011 -4.22016e-011 1   
     length 0.955868   
     axis -90 -7.62852e-016 -20   XYZ
    dof rx
    limits (-90.0 20.0)
  end
  begin
     id 11 
     name lowerback
     direction -0.0104711 0.984802 -0.173368   
     length 1.84931   
     axis 0 0 0   XYZ
    dof rx ry rz
    limits (-20.0 45.0)
           (-30.0 30.0)
           (-30.0 30.0)
  end
  begin
     id 12 
     name upperback
     direction -0.00286433 0.999996 -0.000382853   
     length 1.85768   
     axis 0 0 0   XYZ
    dof rx ry rz
    limits (-20.0 45.0)
           (-30.0 30.0)
           (-30.0 30.0)
  end
  begin
     id 13 
     name thorax
     direction 0.00167534 0.996793 0.0800069   
     length 1.92   
     axis 0 0 0   XYZ
    dof rx ry rz
    limits (-20.0 45.0)
           (-30.0 30.0)
           (-30.0 30.0)
  end
  begin
     id 14 
     name lowerneck
     direction -0.0672491 0.995415 0.068018   
     length 1.58923   
     axis 0 0 0   XYZ
    dof rx ry rz
    limits (-20.0 45.0)
           (-30.0 30.0)
           (-30.0 30.0)
  end
  begin
     id 15 
     name upperneck
     direction 0.0958019 0.982476 -0.159884   
     length 1.60189   
     axis 0 0 0   XYZ
    dof rx ry rz
    limits (-20.0 45.0)
           (-30.0 30.0)
           (-30.0 30.0)
  end
  begin
     id 16
     name head
     direction 0.032989 0.997338 -0.0650226  
     length 1.61681  
     axis 0 0 0   XYZ
    dof rx ry rz
    limits (-20.0 45.0)
           (-30.0 30.0)
           (-30.0 30.0)
  end
  begin
     id 17 
     name lclavicle
     direction 0.954279 0.298875 -0.00496069  
     length 2.99449  
     axis 0 0 0   XYZ
    dof ry rz
    limits (-20.0 10.0)
           (0.0 20.0)
  end
  begin
     id 18 
     name lhumerus
     direction 1 -4.48985e-011 -4.2057e-027   
     length 4.79185   
     axis 180 -30 -90   XYZ
    dof rx ry rz
    limits (-60.0 90.0)
           (-90.0 90.0)
           (-90.0 90.0)
  end
  begin
     id 19
     name lradius
     direction 1 -4.48945e-011 1.15441e-028   
     length 2.65553   
     axis 180 -30 -90   XYZ
    dof rx
    limits (-10.0 170.0)
  end
  begin
     id 20
     name lwrist
     direction 1 -4.4899e-011 4.8894e-028   
     length 1.32777   
     axis -2.56392e-016 90 90   XYZ
    dof ry
    limits (-180.0 0.0)
 end
  begin
     id 21 
     name lhand
     direction 1 -4.48908e-011 9.7788e-028   
     length 0.743904   
     axis -6.23971e-016 90 90   XYZ
    dof rx rz
    limits (-90.0 90.0)
           (-45.0 45.0)
  end
  begin
     id 22 
     name lfingers
     direction 1 -4.49068e-011 1.95576e-027   
     length 0.599754   
     axis -1.24794e-015 90 90   XYZ
    dof rx
    limits (0.0 90.0)
  end
  begin
     id 23
     name lthumb
     direction 0.707107 -6.34883e-011 0.707107   
     length 0.861131   
     axis -90 45 2.85299e-015   XYZ
    dof rx rz
    limits (-45.0 45.0)
           (-45.0 45.0)
  end
  begin
     id 24 
     name rclavicle
     direction -0.957921 0.286916 0.00811568   
     length 3.06817  
     axis 0 0 0   XYZ 
    dof ry rz
    limits (-10.0 20.0)
           (-20.0 0.0)
  end
  begin
     id 25 
     name rhumerus
     direction -1 -4.48971e-011 -3.07942e-027  
     length 4.77254   
     axis 180 30 90   XYZ
    dof rx ry rz
    limits (-90.0 60.0)
           (-90.0 90.0)
           (-90.0 90.0)
  end
  begin
     id 26 
     name rradius
     direction -1 -4.48957e-011 -9.6815e-028   
     length 2.75995   
     axis 180 30 90   XYZ
    dof rx
    limits (-10.0 170.0)
  end
  begin
     id 27 
     name rwrist
     direction -1 -4.48979e-011 4.8894e-028   
     length 1.37997   
     axis -2.56392e-016 -90 -90   XYZ
    dof ry
    limits (-180.0 0.0)
  end
  begin
     id 28
     name rhand
     direction -1 -4.48906e-011 9.7788e-028   
     length 0.701619   
     axis -6.23971e-016 -90 -90   XYZ
    dof rx rz
    limits (-90.0 90.0)
           (-45.0 45.0)
  end
  begin
     id 29
     name rfingers
     direction -1 -4.49018e-011 1.95576e-027   
     length 0.565663   
     axis -1.24794e-015 -90 -90   XYZ
    dof rx
    limits (0.0 90.0)
  end
  begin
     id 30
     name rthumb
     direction -0.707107 -6.34881e-011 0.707107   
     length 0.812183   
     axis -90 -45 -2.85299e-015   XYZ
    dof rx rz
    limits (-45.0 45.0)
           (-45.0 45.0)
  end
:hierarchy
  begin
    root lhipjoint rhipjoint lowerback
    lhipjoint lfemur
    lfemur ltibia
    ltibia lfoot
    lfoot ltoes
    rhipjoint rfemur
    rfemur rtibia
    rtibia rfoot
    rfoot rtoes
    lowerback upperback
    upperback thorax
    thorax lowerneck lclavicle rclavicle
    lowerneck upperneck
    upperneck head
    lclavicle lhumerus
    lhumerus lradius
    lradius lwrist
    lwrist lhand lthumb
    lhand lfingers
    rclavicle rhumerus
    rhumerus rradius
    rradius rwrist
    rwrist rhand rthumb
    rhand rfingers
  end

#!OML:ASF F:\VICON\USERDATA\INSTALL\rory3\rory3.ASF
:FULLY-SPECIFIED
:DEGREES
1051
root 0.240206 15.0892 -0.664495 -0.636246 7.86761 1.07778
lowerback 15.6696 1.99987 -2.71856
upperback 1.61133 2.09238 -1.1682
thorax -7.1212 1.08094 -0.156116
lowerneck -7.37978 1.09471 -10.5793
upperneck 20.5442 1.50775 8.36286
head 7.32274 0.686892 4.6724
rclavicle 1.92821e-014 2.38542e-015
rhumerus -26.6647 -19.621 -9.49903
rradius 55.7013
rwrist 13.2827
rhand -14.0828 14.4231
rfingers 7.12502
rthumb 12.0492 -15.21
lclavicle 1.92821e-014 2.38542e-015
lhumerus -13.8865 24.0426 9.4609
lradius 43.9275
lwrist -2.19387
lhand -13.9204 11.656
lfingers 7.12502
lthumb 12.2059 41.2799
rfemur -19.6049 -1.66166 14.9144
rtibia 50.4019
rfoot -23.27 -12.0435
rtoes -18.1399
lfemur -21.2031 -6.82432 -17.5379
ltibia 46.3662
lfoot -18.2958 -4.09681
ltoes -12.1049
1052
root 0.235903 15.1017 -0.665157 -0.776566 7.808 0.961865
lowerback 15.653 1.93487 -2.64077
upperback 1.65656 2.02314 -1.14846
thorax -7.05998 1.04487 -0.162212
lowerneck -6.47608 0.480746 -11.2287
upperneck 20.0685 0.594187 8.75729
head 7.09468 0.225661 4.8211
rclavicle 1.87852e-014 -7.55382e-015
rhumerus -27.0724 -19.8473 -10.3099
rradius 58.0543
rwrist 13.445
rhand -14.7844 15.1831
rfingers 7.12502
rthumb 11.3727 -14.4886
lclavicle 1.87852e-014 -7.55382e-015
lhumerus -14.8675 23.3186 9.74939
lradius 46.4768
lwrist -1.74944
lhand -14.288 11.7088
lfingers 7.12502
lthumb 11.8514 41.3534
rfemur -19.2855 -1.54273 15.0714
rtibia 49.9941
rfoot -23.1891 -12.4229
rtoes -19.7824
lfemur -20.8987 -6.91091 -17.4041
ltibia 46.0547
lfoot -18.2201 -4.05296
ltoes -11.6445
1053
root 0.232532 15.1164 -0.66662 -0.798424 7.74283 1.00337
lowerback 15.5191 1.91979 -2.68821
upperback 1.71195 1.99806 -1.1974
thorax -6.92593 1.0326 -0.176226
lowerneck -5.63483 -0.166562 -11.8748
upperneck 19.62 -0.384217 9.24283
head 6.9049 -0.261708 5.00363
rclavicle -9.69075e-015 5.96354e-015
rhumerus -27.6613 -19.9325 -11.136
rradius 60.5565
rwrist 13.4415
rhand -15.5912 15.3619
rfingers 7.12502
rthumb 10.5945 -14.351
lclavicle -9.69075e-015 5.96354e-015
lhumerus -15.6936 22.68 10.1858
lradius 49.1634
lwrist -1.3435
lhand -14.6195 11.8916
lfingers 7.12502
lthumb 11.5318 41.5543
rfemur -19.0831 -1.4882 15.0484
rtibia 49.6154
rfoot -22.9984 -12.6236
rtoes -20.8738
lfemur -20.6928 -6.9844 -17.4429
ltibia 45.7573
lfoot -18.2166 -3.94653
ltoes -11.4852
1054
root 0.231356 15.1295 -0.669694 -0.814688 7.70988 1.16104
lowerback 15.3522 1.9073 -2.81658
upperback 1.83316 1.964 -1.27785
thorax -6.70477 1.01689 -0.173531
lowerneck -4.72615 -0.807441 -12.6056
upperneck 18.9314 -1.37849 9.89388
head 6.64147 -0.752561 5.25426
rclavicle -1.34677e-014 1.43125e-014
rhumerus -28.1581 -20.1688 -12.0578
rradius 63.0872
rwrist 13.4573
rhand -16.1916 15.2109
rfingers 7.12502
rthumb 10.0153 -14.5308
lclavicle -1.34677e-014 1.43125e-014
lhumerus -16.4841 21.984 10.769
lradius 52.0619
lwrist -0.706944
lhand -15.3559 12.5737
lfingers 7.12502
lthumb 10.8215 42.2749
rfemur -18.8932 -1.47674 14.8685
rtibia 49.2818
rfoot -22.8654 -12.5142
rtoes -20.7894
lfemur -20.4899 -7.15682 -17.6299
ltibia 45.4715
lfoot -18.1367 -3.78112
ltoes -11.2671
1055
root 0.226038 15.1394 -0.679395 -0.929803 7.63065 1.08027
lowerback 15.3815 1.87633 -2.77938
upperback 1.98159 1.93355 -1.25572
thorax -6.56097 0.999754 -0.161952
lowerneck -3.99225 -1.41659 -13.2005
upperneck 18.2736 -2.28622 10.3029
head 6.42306 -1.21154 5.41344
rclavicle -1.03368e-014 1.82882e-014
rhumerus -28.4602 -20.32 -13.0815
rradius 65.6471
rwrist 13.4243
rhand -16.772 15.0276
rfingers 7.12502
rthumb 9.45532 -14.7403
lclavicle -1.03368e-014 1.82882e-014
lhumerus -17.3777 21.452 11.407
lradius 55.042
lwrist -0.100111
lhand -16.0585 13.1804
lfingers 7.12502
lthumb 10.1437 42.9159
rfemur -18.6958 -1.29847 14.9813
rtibia 48.9765
rfoot -22.765 -12.4615
rtoes -20.2843
lfemur -20.2705 -7.27006 -17.5358
ltibia 45.2031
lfoot -18.0271 -3.61461
ltoes -11.4231
1056
root 0.216308 15.15 -0.692951 -1.03137 7.57441 0.831646
lowerback 15.4779 1.81923 -2.62135
upperback 2.08849 1.88771 -1.19422
thorax -6.49577 0.97324 -0.176742
lowerneck -3.51346 -2.00219 -13.6184
upperneck 17.9492 -3.14009 10.5563
head 6.35515 -1.64327 5.50509
rclavicle -1.78906e-015 -1.82882e-014
rhumerus -28.834 -20.1421 -14.1529
rradius 68.3396
rwrist 13.3105
rhand -17.4055 14.7825
rfingers 7.12502
rthumb 8.84408 -15.0122
lclavicle -1.78906e-015 -1.82882e-014
lhumerus -18.2814 21.1643 11.9626
lradius 57.9381
lwrist 0.100585
lhand -16.1379 13.1492
lfingers 7.12502
lthumb 10.0671 42.8884
rfemur -18.5626 -1.0869 15.3125
rtibia 48.7043
rfoot -22.6392 -12.5027
rtoes -20.1778
lfemur -20.139 -7.29108 -17.2181
ltibia 44.9431
lfoot -17.8961 -3.54203
ltoes -11.4324
1057
root 0.21012 15.1627 -0.699922 -1.06436 7.6338 0.829699
lowerback 15.4089 1.73686 -2.65296
upperback 2.23923 1.77859 -1.21978
thorax -6.29493 0.91886 -0.157712
lowerneck -2.93728 -2.54677 -14.0268
upperneck 17.5133 -3.96278 10.9011
head 6.23769 -2.05575 5.62737
rclavicle 3.67752e-014 1.11319e-014
rhumerus -29.203 -19.9641 -15.2812
rradius 70.9813
rwrist 13.3402
rhand -18.1058 14.4847
rfingers 7.12502
rthumb 8.16827 -15.3374
lclavicle 3.67752e-014 1.11319e-014
lhumerus -19.1739 20.8874 12.5625
lradius 60.907
lwrist 0.264671
lhand -16.348 12.9602
lfingers 7.12502
lthumb 9.86445 42.7092
rfemur -18.4006 -1.09715 15.3329
rtibia 48.4615
rfoot -22.5864 -12.5185
rtoes -20.286
lfemur -19.9953 -7.41269 -17.2066
ltibia 44.6772
lfoot -17.7393 -3.46194
ltoes -11.4579
1058
root 0.208606 15.1712 -0.706034 -1.06998 7.69621 1.03401
lowerback 15.3095 1.6518 -2.8547
upperback 2.4161 1.63785 -1.28334
thorax -6.05275 0.851701 -0.0756101
lowerneck -2.33458 -3.04308 -14.5066
upperneck 16.9711 -4.72126 11.2998
head 6.08334 -2.43987 5.78465
rclavicle 3.57812e-014 -3.29983e-014
rhumerus -29.4501 -19.9747 -16.4428
rradius 73.5559
rwrist 13.6486
rhand -18.5826 14.4854
rfingers 7.12502
rthumb 7.70807 -15.3541
lclavicle 3.57812e-014 -3.29983e-014
lhumerus -20.1132 20.6485 13.261
lradius 63.9468
lwrist 0.498073
lhand -16.5739 12.4781
lfingers 7.12502
lthumb 9.64648 42.2372
rfemur -18.2522 -1.20504 15.078
rtibia 48.2638
rfoot -22.57 -12.414
rtoes -20.0523
lfemur -19.826 -7.57008 -17.4505
ltibia 44.4103
lfoot -17.583 -3.38549
ltoes -11.2607
1059
root 0.205787 15.1812 -0.71479 -1.11514 7.56182 1.11127
lowerback 15.3207 1.63285 -3.01709
upperback 2.56411 1.59009 -1.28132
thorax -5.9045 0.829641 0.0305587
lowerneck -1.87471 -3.50618 -15.0697
upperneck 16.5704 -5.42903 11.762
head 6.00262 -2.79951 5.98432
rclavicle -1.66979e-014 8.34896e-015
rhumerus -29.6294 -20.0233 -17.6498
rradius 76.1137
rwrist 14.0856
rhand -18.8581 14.6049
rfingers 7.12502
rthumb 7.44216 -15.2442
lclavicle -1.66979e-014 8.34896e-015
lhumerus -21.0159 20.4612 14.0319
lradius 66.9511
lwrist 0.654379
lhand -16.5679 11.7741
lfingers 7.12502
lthumb 9.6523 41.533
rfemur -18.1434 -1.05271 15.0039
rtibia 48.0837
rfoot -22.3462 -12.2782
rtoes -19.308
lfemur -19.6397 -7.54705 -17.5282
ltibia 44.1628
lfoot -17.4607 -3.30324
ltoes -11.337
1060
root 0.203544 15.1933 -0.724198 -1.22852 7.31334 0.938694
lowerback 15.3978 1.62859 -2.9498
upperback 2.71089 1.60005 -1.21719
thorax -5.7907 0.831763 0.0592866
lowerneck -1.56221 -3.93855 -15.6101
upperneck 16.219 -6.0863 12.2551
head 5.96346 -3.12876 6.19366
rclavicle 2.14687e-014 -6.75868e-015
rhumerus -29.7452 -19.9648 -18.8701
rradius 78.5289
rwrist 14.6656
rhand -18.9154 15.0349
rfingers 7.12502
rthumb 7.38683 -14.8162
lclavicle 2.14687e-014 -6.75868e-015
lhumerus -21.9498 20.115 14.8504
lradius 70.1198
lwrist 0.972644
lhand -16.9922 11.8172
lfingers 7.12502
lthumb 9.24291 41.5947
rfemur -18.0228 -0.811449 15.2261
rtibia 47.898
rfoot -22.0967 -12.0411
rtoes -18.0375
lfemur -19.4363 -7.42266 -17.3292
ltibia 43.9819
lfoot -17.3489 -3.18212
ltoes -11.5671
